<svg xmlns="http://www.w3.org/2000/svg" width="566.929" height="453.543" viewBox="0 0 425.197 340.158"><g data-name="Слой 1" fill-rule="evenodd"><path d="M375.317 191.159h2.237c1.073 0 1.798-.151 2.188-.472.387-.314.588-.744.588-1.259 0-.337-.1-.641-.284-.902a1.583 1.583 0 0 0-.778-.591c-.338-.127-.955-.203-1.85-.203h-2.101zm-1.84 6.425h1.84v-4.839h1.081c.659-.007 1.14.127 1.477.38.488.355 1.14 1.25 1.933 2.66l1.022 1.799h2.236l-1.393-2.228c-.665-1.065-1.233-1.816-1.687-2.264-.244-.237-.567-.438-.972-.598.988-.086 1.78-.43 2.381-1.048.598-.615.886-1.35.886-2.178 0-.591-.177-1.14-.522-1.663a2.814 2.814 0 0 0-1.445-1.106c-.599-.22-1.57-.32-2.913-.32h-3.925zm4.659-14.715c-1.486 0-2.946.388-4.356 1.149a8.145 8.145 0 0 0-3.319 3.276c-.792 1.416-1.19 2.895-1.19 4.439 0 1.529.388 2.989 1.173 4.398a8.463 8.463 0 0 0 3.286 3.276c1.41.776 2.87 1.173 4.406 1.173 1.53 0 2.989-.397 4.398-1.173a8.327 8.327 0 0 0 3.277-3.276c.785-1.41 1.172-2.87 1.172-4.398 0-1.544-.395-3.023-1.199-4.44a8.017 8.017 0 0 0-3.307-3.275c-1.412-.761-2.862-1.15-4.341-1.15zm0-1.757c1.783 0 3.513.457 5.217 1.37a9.698 9.698 0 0 1 3.96 3.924c.955 1.706 1.427 3.48 1.427 5.327 0 1.823-.472 3.587-1.4 5.267a9.82 9.82 0 0 1-3.927 3.934c-1.68.938-3.444 1.403-5.277 1.403-1.84 0-3.604-.465-5.284-1.403a9.821 9.821 0 0 1-3.934-3.934c-.939-1.68-1.403-3.444-1.403-5.267 0-1.848.474-3.621 1.42-5.327.961-1.697 2.277-3.013 3.984-3.925 1.697-.912 3.427-1.369 5.217-1.369M327.608 217.787l7.083-11.684a94.92 94.92 0 0 1 5.277-.734c1.723-.187 3.37-.28 4.947-.28 6.739 0 11.812 1.572 15.222 4.719 3.41 3.15 5.15 8.012 5.227 14.615v21.909c-.077 2.769.522 4.77 1.797 6.009 1.276 1.232 3.37 1.893 6.29 1.96.303.076.633.11 1.004.11a5.6 5.6 0 0 0 1.132-.11l-5.394 7.53h-1.689c-5.014 0-8.57-1.124-10.671-3.369-2.101-2.254-3.15-5.317-3.15-9.21v-17.645a20.726 20.726 0 0 1-3.149 1.68c-1.039.457-3.968 1.242-8.754 2.364-4.204 1.046-7.134 2.338-8.823 3.875-1.688 1.536-2.532 3.537-2.532 6.011-.077 2.845.878 5.133 2.869 6.856 1.986 1.73 4.813 2.583 8.486 2.583 1.493 0 3.073-.11 4.71-.338a31.84 31.84 0 0 0 5.066-1.122l-7.2 8.99a40.86 40.86 0 0 1-3.588.726 23.366 23.366 0 0 1-3.597.287c-5.47 0-9.87-1.63-13.205-4.887-3.327-3.26-4.997-7.548-4.997-12.868 0-3.89 1.166-7.117 3.487-9.656 2.321-2.55 7.521-4.762 15.61-6.636 7.344-1.646 11.71-3.056 13.093-4.214 1.385-1.156 2.077-2.676 2.077-4.55 0-2.17-.895-3.89-2.702-5.166-1.79-1.276-4.339-1.907-7.639-1.907-2.77 0-5.573.354-8.426 1.062-2.845.708-5.463 1.74-7.861 3.09zm-30.002-27.868h4.151v17.424h12.598c.598 0 1.189-.024 1.797-.057.6-.034 1.233-.17 1.91-.398v10.899a6.138 6.138 0 0 0-2.248-1.908c-.902-.447-2.067-.675-3.486-.675h-10.57v28.543c-.067 3.817.844 6.754 2.761 8.814 1.907 2.06 4.88 3.09 8.931 3.09.678 0 1.369-.058 2.077-.168.718-.11 1.48-.28 2.305-.507l-6.517 8.206c-.674.076-1.308.143-1.916.227-.592.076-1.156.11-1.68.11-5.244 0-9.322-1.63-12.241-4.887-2.922-3.26-4.382-7.59-4.382-12.978v-30.45h-7.868v-4.044c4.939-.6 8.67-2.828 11.178-6.686 2.515-3.858 3.58-8.714 3.2-14.555zm-55.392 71.913h-18.539c1.35-.895 2.338-1.96 2.98-3.2.634-1.242.954-2.788.954-4.669v-38.759c0-1.8-.32-3.319-.954-4.551-.642-1.24-1.63-2.338-2.98-3.31h8.653c1.276.07 2.355-.04 3.26-.337.895-.304 1.797-.793 2.692-1.47v7.531c1.352-2.472 3.714-4.415 7.084-5.841 3.367-1.426 6.854-2.137 10.443-2.137 6.593 0 11.71 1.63 15.34 4.889 3.638 3.26 5.444 7.548 5.444 12.865v31.12c0 1.881.304 3.427.905 4.67.598 1.239 1.61 2.304 3.03 3.199h-18.53c1.342-.895 2.321-1.96 2.92-3.2.6-1.242.938-2.788 1.005-4.669v-28.088c0-3.74-1.233-6.72-3.707-8.933-2.472-2.211-5.799-3.307-9.996-3.307-4.423 0-7.85 1.062-10.281 3.2-2.432 2.134-3.657 5.376-3.657 9.715v27.413c0 1.881.304 3.427.895 4.67.608 1.239 1.62 2.304 3.04 3.199zm-67.411-44.045 7.074-11.684a96.404 96.404 0 0 1 5.284-.734 46 46 0 0 1 4.949-.28c6.736 0 11.81 1.572 15.22 4.719 3.403 3.15 5.15 8.012 5.227 14.615v21.909c-.077 2.769.524 4.77 1.797 6.009 1.268 1.232 3.37 1.893 6.291 1.96.295.076.642.11 1.003.11.38 0 .751-.034 1.132-.11l-5.394 7.53h-1.69c-5.013 0-8.576-1.124-10.67-3.369-2.094-2.254-3.14-5.317-3.14-9.21v-17.645a21.28 21.28 0 0 1-3.16 1.68c-1.045.457-3.967 1.242-8.753 2.364-4.195 1.046-7.141 2.338-8.821 3.875-1.68 1.536-2.525 3.537-2.525 6.011-.076 2.845.878 5.133 2.862 6.856 1.984 1.73 4.813 2.583 8.484 2.583 1.496 0 3.073-.11 4.712-.338a32.05 32.05 0 0 0 5.064-1.122l-7.191 8.99a41.6 41.6 0 0 1-3.597.726 23.364 23.364 0 0 1-3.597.287c-5.464 0-9.87-1.63-13.203-4.887-3.336-3.26-5-7.548-5-12.868 0-3.89 1.166-7.117 3.488-9.656 2.314-2.55 7.521-4.762 15.617-6.636 7.337-1.646 11.702-3.056 13.086-4.214 1.385-1.156 2.077-2.676 2.077-4.55 0-2.17-.903-3.89-2.702-5.166-1.797-1.276-4.339-1.907-7.639-1.907-2.769 0-5.573.354-8.416 1.062-2.855.708-5.471 1.74-7.869 3.09zm-67.759-10.444a21.431 21.431 0 0 1 4.957 3.757 16.928 16.928 0 0 1 3.36 5l15.517 36.064c1.493 3.52 3.096 6.088 4.82 7.708 1.722 1.603 4.237 3.31 7.53 5.109l26.746-57.638h-17.34a7.052 7.052 0 0 1 2.692 2.484c.674 1.055 1.048 2.168 1.122 3.394-.074.75-.261 1.67-.558 2.768-.294 1.08-.749 2.305-1.35 3.671l-13.219 29.945-16.498-39.66c-.304-.532-.54-1.226-.735-2.044a19.926 19.926 0 0 1-.387-2.472 6.55 6.55 0 0 1-2.753 1.52 13.756 13.756 0 0 1-3.333.394zM77.05 193.406l-12.21 31.017h24.535zm-10.58-10.224h18.483l27.023 67.074c1.275 3.226 2.658 5.698 4.161 7.421a17.573 17.573 0 0 0 5.404 4.155H97.496c1.874-.828 3.106-1.943 3.688-3.37.608-1.426.49-3.226-.311-5.394l-8.503-21.124H61.86l-7.04 17.645c-1.276 3.072-1.604 5.54-1.065 7.413.557 1.865 1.816 3.478 3.74 4.83H36.374a19.406 19.406 0 0 0 5.47-5.11c1.486-2.058 3.047-5.114 4.686-9.158l22.524-56.85c.675-1.8.768-3.336.278-4.612-.482-1.273-1.443-2.252-2.863-2.92" fill="#1d1d1b"/><path d="M255.142 297.049h19.14c-.227-2.245-1.165-4.035-2.812-5.368-1.653-1.326-3.724-1.993-6.246-1.993-2.601.043-4.822.734-6.645 2.06-1.831 1.333-2.973 3.1-3.437 5.3zm27.059 4.475h-27.75c-.185 3.91.971 7.134 3.453 9.675 2.474 2.549 6.188 3.824 11.144 3.824 2.575.043 4.954-.227 7.158-.792 2.214-.574 4.365-1.452 6.476-2.651l-4.542 7.158c-1.79.55-3.51.945-5.167 1.175a39.425 39.425 0 0 1-5.37.344c-6.196 0-11.126-1.587-14.8-4.753-3.68-3.166-5.51-7.614-5.51-13.356-.043-5.14 1.593-9.378 4.93-12.705 3.316-3.326 7.782-4.99 13.389-4.99 5.277 0 9.395 1.62 12.35 4.856 2.963 3.233 4.373 7.302 4.239 12.215zm-49.987-30.503h5.3c.788.053 1.446-.016 2.003-.2.549-.178 1.096-.482 1.654-.896V314.4c0 1.148.187 2.1.548 2.862.364.751.989 1.41 1.857 1.957h-8.948v-18.59c0-3.436-1.005-6.128-3.032-8.052-2.017-1.926-4.473-2.889-7.368-2.889-3.16 0-5.818 1.106-7.953 3.337-2.127 2.228-3.199 5.107-3.199 8.636 0 3.858 1.19 7.048 3.578 9.573 2.39 2.524 5.37 3.79 8.957 3.79 1.553 0 2.855-.15 3.884-.447a9.99 9.99 0 0 0 2.996-1.486l-3.03 5.167c-.548.828-1.215 1.368-1.993 1.612-.775.254-1.907.388-3.376.388-5.368-.05-9.743-1.747-13.12-5.097-3.367-3.353-5.056-7.598-5.056-12.741 0-5.227 1.646-9.522 4.922-12.875 3.284-3.35 7.378-5.047 12.291-5.09 2.154 0 4.188.354 6.096 1.065 1.9.708 3.707 1.737 5.403 3.063v-12.739c0-1.098-.193-2.027-.581-2.785-.397-.761-1.005-1.436-1.833-2.037zm-56.04 21.208c1.467-.828 3.073-1.453 4.82-1.89 1.74-.44 3.47-.651 5.167-.651 2.017 0 3.57.39 4.676 1.165 1.105.778 1.656 1.84 1.656 3.166 0 1.156-.424 2.084-1.276 2.786-.852.717-3.52 1.58-8.019 2.584-4.956 1.146-8.148 2.506-9.565 4.061-1.427 1.57-2.137 3.537-2.137 5.926 0 3.26 1.022 5.884 3.056 7.885 2.043 2 4.745 2.996 8.089 2.996.741 0 1.476-.057 2.203-.177a23.6 23.6 0 0 0 2.202-.448l4.415-5.51a19.271 19.271 0 0 1-3.096.69c-1.015.144-1.977.211-2.896.211-2.247 0-3.984-.53-5.193-1.586-1.223-1.056-1.807-2.458-1.757-4.195 0-1.513.508-2.745 1.546-3.69 1.03-.939 2.83-1.73 5.404-2.372 2.937-.684 4.726-1.175 5.368-1.446.65-.277 1.285-.624 1.926-1.028v10.807c0 2.378.649 4.262 1.934 5.647 1.283 1.367 3.46 2.058 6.543 2.058h1.029l3.3-4.609a3.681 3.681 0 0 1-.692.067c-.227 0-.43-.023-.615-.067-1.79-.05-3.075-.447-3.85-1.206-.785-.76-1.156-1.984-1.099-3.68V296.29c-.057-4.035-1.122-7.016-3.206-8.948-2.095-1.926-5.2-2.888-9.331-2.888-.962 0-1.975.06-3.03.17-1.055.107-2.137.26-3.233.447zm-11.702 26.99h-11.71c.828-.549 1.436-1.207 1.824-1.958.397-.761.582-1.714.582-2.862v-23.75c0-1.105-.185-2.034-.582-2.792-.388-.752-.996-1.436-1.824-2.027h5.024c.744.043 1.385-.017 1.924-.177.557-.16 1.108-.465 1.663-.922v5.507c1.098-1.75 2.44-3.15 4.027-4.205 1.58-1.048 3.337-1.58 5.268-1.58.363.044.751.077 1.165.101.414.027.828.086 1.242.177v6.74a8.237 8.237 0 0 0-1.79-.821 6.768 6.768 0 0 0-1.993-.278c-2.389.05-4.255.885-5.579 2.515-1.335 1.623-1.993 4.07-1.993 7.337V314.4c0 1.148.21 2.1.65 2.862.432.751 1.14 1.41 2.102 1.957zm-26.305-44.06h2.548v10.67h7.709c.37 0 .742-.016 1.105-.033.364-.026.752-.1 1.166-.244v6.677a3.755 3.755 0 0 0-1.376-1.173c-.55-.27-1.259-.406-2.137-.406h-6.466v17.484c-.05 2.34.514 4.137 1.687 5.413 1.175 1.249 2.989 1.89 5.47 1.89a8.43 8.43 0 0 0 1.276-.11 12.7 12.7 0 0 0 1.41-.304l-3.985 5.024c-.421.05-.809.093-1.182.143a8.765 8.765 0 0 1-1.022.067c-3.217 0-5.722-.995-7.505-2.996-1.797-2-2.692-4.643-2.692-7.952v-18.66h-4.813v-2.481c3.023-.362 5.31-1.73 6.84-4.095 1.543-2.362 2.194-5.334 1.967-8.914" fill="#9c9b9b"/><path d="M108.504 144.201c-4.432 3.554-6.6 9.472-7.284 16.936-2.862-5.717-10.731-9.448-16.48-11.128-2.854-.835-5.503-2.084-8.813-10.123 10.3-3.36 20.59-1.173 32.577 4.315M318.557 20.063C299.924 33.266 290.216 38.4 268.94 48.37c43.899-3.798 80.784 42.93 47.328 88.619 69.716-26.381 67.285-112.579 2.288-116.925" fill="#e20613"/><path d="M295.157 96.839c-2.058 14.131 1.84 26.752 9.474 40.278-32.596-9.498-59.629 7.378-73.88 28.071-18.876-37.002 14.184-70.881 64.406-68.35" fill="#e20613"/><path d="M232.096 65.348c8.644 8.14 18.279 14.04 30.03 15.07-33.366 34.9-61.207 39.115-94.318 8.232 26.305 1.78 47.362-3.774 64.288-23.302" fill="#1d1d1b"/><path d="M208.977 145.847c-9.547 5.268-15.288 10.839-22.936 24.618.371-5.91-9.237-34.065-35.172-42.745 2.98-1.13 9.506-1.721 17.705-10.654 11.472-.92 33.716 10.797 40.403 28.781" fill="#e20613"/><path d="M159.085 148.841c-8.72-3.781-26.095-17.467-28.897-36.545-10.814 9.151-13.322 10.645-24.508 14.285 21.115 21.863 27.952 31.708 53.405 22.26M47.243 151.83c2.07-4.736 3.446-7.809 6.492-10.594 4.272 7.404 6.29 8.112 15.013 8.536.598.017-4.569 1.984-6.012 5.14-6.232 2.348-11.111.829-15.493-3.082" fill="#1d1d1b"/></g></svg>